<svg xmlns="http://www.w3.org/2000/svg" width="492" height="130" fill="none"><path stroke="#EFBB3B" stroke-linecap="round" stroke-width="6" d="m3 126.5 101.637-74.003c1.707-1.243 3.955.67 3.007 2.557C93.731 82.74 74.02 126.5 83.5 126.5c9.586 0 50.211-41.064 73.87-66.416 1.433-1.536 3.999-.098 3.46 1.932-4.392 16.558-10.029 39.785-8.33 41.484 1.847 1.847 34.256-24.878 53.905-41.579 1.469-1.248 3.697.102 3.298 1.988-2.917 13.764-6.319 33.13-3.203 32.091 4.197-1.399 45.359-36.719 59.404-41.473 1.265-.428 2.22.752 1.859 2.037-3.349 11.905-7.98 31.82-4.263 32.936 3.636 1.09 35.643-18.945 55.458-31.863 1.659-1.082 3.746.645 2.996 2.48-7.108 17.382-16.715 43.383-12.454 43.383 6 0 77-25 179.5-100.5"/></svg>